<svg width="22" height="22" viewBox="0 0 22 22" fill="none" xmlns="http://www.w3.org/2000/svg">
<path d="M11.5526 6.74459H9.8932V13.2822L15.1479 16.3875L15.9776 15.0473L11.5526 12.465V6.74459ZM16.9035 0L22 4.18949L20.584 5.86202L15.4842 1.67471L16.9035 0ZM5.09539 0L6.5136 1.67362L1.416 5.86202L0 4.1884L5.09539 0ZM10.9994 2.38621C8.35874 2.38636 5.82624 3.41972 3.95908 5.25897C2.09192 7.09822 1.04305 9.5927 1.04319 12.1937C1.04334 14.7946 2.0925 17.289 3.95987 19.128C5.82723 20.9671 8.35984 22.0001 11.0006 22C12.3081 21.9999 13.6028 21.7462 14.8108 21.2533C16.0188 20.7604 17.1164 20.0379 18.0409 19.1272C18.9654 18.2165 19.6988 17.1354 20.1991 15.9455C20.6994 14.7557 20.9569 13.4804 20.9568 12.1926C20.9567 10.9047 20.6991 9.62947 20.1987 8.43967C19.6982 7.24987 18.9648 6.1688 18.0401 5.2582C17.1155 4.3476 16.0178 3.62528 14.8098 3.13251C13.6018 2.63973 12.307 2.38614 10.9994 2.38621ZM10.9994 19.8197C6.72932 19.8197 3.25569 16.3984 3.25569 12.1926C3.25569 7.98673 6.72932 4.5654 10.9994 4.5654C15.2696 4.5654 18.7432 7.98673 18.7432 12.1926C18.7432 16.3984 15.2696 19.8197 10.9994 19.8197Z" fill="white"/>
</svg>
