<svg width="18" height="25" viewBox="0 0 18 25" fill="none" xmlns="http://www.w3.org/2000/svg">
<path d="M5.1 9.80952V5.35714C5.1 4.56781 5.41607 3.8108 5.97868 3.25266C6.54129 2.69451 7.30435 2.38095 8.1 2.38095C8.89565 2.38095 9.65871 2.69451 10.2213 3.25266C10.7839 3.8108 11.1 4.56781 11.1 5.35714V9.80952C12.552 8.84524 13.5 7.21429 13.5 5.35714C13.5 2.39286 11.088 0 8.1 0C5.112 0 2.7 2.39286 2.7 5.35714C2.7 7.21429 3.648 8.84524 5.1 9.80952ZM16.908 15.3214L11.46 12.631C11.256 12.5476 11.04 12.5 10.812 12.5H9.9V5.35714C9.9 4.36905 9.096 3.57143 8.1 3.57143C7.104 3.57143 6.3 4.36905 6.3 5.35714V18.1429C1.98 17.2381 2.052 17.25 1.896 17.25C1.524 17.25 1.188 17.4048 0.948 17.6429L0 18.5952L5.928 24.4762C6.252 24.7976 6.708 25 7.2 25H15.348C16.248 25 16.944 24.3452 17.076 23.4762L17.976 17.2024C17.988 17.119 18 17.0357 18 16.9643C18 16.2262 17.544 15.5833 16.908 15.3214Z" fill="white"/>
</svg>
