<svg width="20" height="21" viewBox="0 0 20 21" fill="none" xmlns="http://www.w3.org/2000/svg">
<path d="M10 0C4.48 0 0 4.55929 0 10.177C0 15.7947 4.48 20.354 10 20.354C15.52 20.354 20 15.7947 20 10.177C20 4.55929 15.52 0 10 0ZM10 3.0531C11.66 3.0531 13 4.41681 13 6.1062C13 7.79558 11.66 9.15929 10 9.15929C8.34 9.15929 7 7.79558 7 6.1062C7 4.41681 8.34 3.0531 10 3.0531ZM10 17.5044C8.81186 17.5044 7.64218 17.2052 6.59528 16.6334C5.54837 16.0616 4.65678 15.2351 4 14.2274C4.03 12.2022 8 11.0929 10 11.0929C11.99 11.0929 15.97 12.2022 16 14.2274C15.3432 15.2351 14.4516 16.0616 13.4047 16.6334C12.3578 17.2052 11.1881 17.5044 10 17.5044Z" fill="white"/>
</svg>
